<svg width="287" height="18" viewBox="0 0 287 18" fill="none" xmlns="http://www.w3.org/2000/svg">
<path d="M6.18 11.222C6.212 11.202 6.238 11.186 6.258 11.174C6.282 11.158 6.306 11.15 6.33 11.15C6.374 11.15 6.404 11.156 6.42 11.168C6.436 11.18 6.456 11.198 6.48 11.222L6.846 11.606C6.618 11.87 6.338 12.076 6.006 12.224C5.674 12.368 5.276 12.44 4.812 12.44C4.42 12.44 4.062 12.372 3.738 12.236C3.418 12.1 3.142 11.91 2.91 11.666C2.682 11.422 2.504 11.132 2.376 10.796C2.252 10.46 2.19 10.092 2.19 9.692C2.19 9.288 2.258 8.918 2.394 8.582C2.534 8.242 2.726 7.952 2.97 7.712C3.214 7.468 3.502 7.28 3.834 7.148C4.17 7.012 4.534 6.944 4.926 6.944C5.358 6.944 5.726 7.012 6.03 7.148C6.334 7.284 6.6 7.462 6.828 7.682L6.552 8.072C6.532 8.096 6.506 8.12 6.474 8.144C6.442 8.168 6.402 8.18 6.354 8.18C6.298 8.18 6.238 8.158 6.174 8.114C6.114 8.07 6.034 8.022 5.934 7.97C5.834 7.914 5.708 7.864 5.556 7.82C5.404 7.772 5.21 7.748 4.974 7.748C4.694 7.748 4.44 7.794 4.212 7.886C3.988 7.974 3.796 8.102 3.636 8.27C3.48 8.438 3.358 8.642 3.27 8.882C3.186 9.122 3.144 9.392 3.144 9.692C3.144 10 3.186 10.276 3.27 10.52C3.358 10.76 3.478 10.962 3.63 11.126C3.782 11.29 3.964 11.416 4.176 11.504C4.388 11.588 4.618 11.63 4.866 11.63C5.058 11.63 5.22 11.618 5.352 11.594C5.484 11.57 5.598 11.538 5.694 11.498C5.79 11.458 5.874 11.414 5.946 11.366C6.022 11.318 6.1 11.27 6.18 11.222ZM0.408 9.704C0.408 9.3 0.46 8.912 0.564 8.54C0.668 8.164 0.814 7.814 1.002 7.49C1.194 7.162 1.424 6.866 1.692 6.602C1.96 6.334 2.256 6.104 2.58 5.912C2.904 5.72 3.252 5.572 3.624 5.468C3.996 5.364 4.384 5.312 4.788 5.312C5.192 5.312 5.58 5.364 5.952 5.468C6.328 5.572 6.678 5.72 7.002 5.912C7.326 6.104 7.622 6.334 7.89 6.602C8.158 6.866 8.386 7.162 8.574 7.49C8.766 7.814 8.914 8.164 9.018 8.54C9.122 8.912 9.174 9.3 9.174 9.704C9.174 10.104 9.122 10.492 9.018 10.868C8.914 11.24 8.766 11.588 8.574 11.912C8.386 12.236 8.158 12.532 7.89 12.8C7.622 13.064 7.326 13.292 7.002 13.484C6.678 13.676 6.328 13.824 5.952 13.928C5.58 14.032 5.192 14.084 4.788 14.084C4.384 14.084 3.996 14.032 3.624 13.928C3.252 13.824 2.904 13.676 2.58 13.484C2.256 13.292 1.96 13.064 1.692 12.8C1.424 12.532 1.194 12.236 1.002 11.912C0.814 11.588 0.668 11.24 0.564 10.868C0.46 10.496 0.408 10.108 0.408 9.704ZM1.008 9.704C1.008 10.06 1.052 10.402 1.14 10.73C1.228 11.058 1.354 11.366 1.518 11.654C1.682 11.938 1.878 12.196 2.106 12.428C2.334 12.66 2.588 12.86 2.868 13.028C3.148 13.192 3.45 13.32 3.774 13.412C4.098 13.5 4.436 13.544 4.788 13.544C5.316 13.544 5.81 13.444 6.27 13.244C6.734 13.044 7.136 12.772 7.476 12.428C7.82 12.08 8.09 11.674 8.286 11.21C8.486 10.742 8.586 10.24 8.586 9.704C8.586 9.348 8.54 9.004 8.448 8.672C8.36 8.34 8.234 8.032 8.07 7.748C7.906 7.46 7.708 7.198 7.476 6.962C7.248 6.726 6.994 6.526 6.714 6.362C6.434 6.194 6.13 6.064 5.802 5.972C5.478 5.88 5.14 5.834 4.788 5.834C4.26 5.834 3.766 5.936 3.306 6.14C2.846 6.34 2.446 6.616 2.106 6.968C1.766 7.316 1.498 7.726 1.302 8.198C1.106 8.666 1.008 9.168 1.008 9.704ZM20.0125 14H19.1125C19.0085 14 18.9245 13.974 18.8605 13.922C18.7965 13.87 18.7485 13.804 18.7165 13.724L17.9125 11.648H14.0545L13.2505 13.724C13.2225 13.796 13.1745 13.86 13.1065 13.916C13.0385 13.972 12.9545 14 12.8545 14H11.9545L15.3925 5.402H16.5745L20.0125 14ZM14.3785 10.808H17.5885L16.2385 7.31C16.1505 7.094 16.0645 6.824 15.9805 6.5C15.9365 6.664 15.8925 6.816 15.8485 6.956C15.8085 7.092 15.7685 7.212 15.7285 7.316L14.3785 10.808ZM22.1148 5.162V14H21.0468V5.162H22.1148ZM25.1851 5.162V14H24.1171V5.162H25.1851ZM29.3877 14V7.922H29.9997C30.1157 7.922 30.1957 7.944 30.2397 7.988C30.2837 8.032 30.3137 8.108 30.3297 8.216L30.4017 9.164C30.6097 8.74 30.8657 8.41 31.1697 8.174C31.4777 7.934 31.8377 7.814 32.2497 7.814C32.4177 7.814 32.5697 7.834 32.7057 7.874C32.8417 7.91 32.9677 7.962 33.0837 8.03L32.9457 8.828C32.9177 8.928 32.8557 8.978 32.7597 8.978C32.7037 8.978 32.6177 8.96 32.5017 8.924C32.3857 8.884 32.2237 8.864 32.0157 8.864C31.6437 8.864 31.3317 8.972 31.0797 9.188C30.8317 9.404 30.6237 9.718 30.4557 10.13V14H29.3877ZM35.4156 7.922V14H34.3476V7.922H35.4156ZM35.6556 6.014C35.6556 6.118 35.6336 6.216 35.5896 6.308C35.5496 6.396 35.4936 6.476 35.4216 6.548C35.3536 6.616 35.2736 6.67 35.1816 6.71C35.0896 6.75 34.9916 6.77 34.8876 6.77C34.7836 6.77 34.6856 6.75 34.5936 6.71C34.5056 6.67 34.4256 6.616 34.3536 6.548C34.2856 6.476 34.2316 6.396 34.1916 6.308C34.1516 6.216 34.1316 6.118 34.1316 6.014C34.1316 5.91 34.1516 5.812 34.1916 5.72C34.2316 5.624 34.2856 5.542 34.3536 5.474C34.4256 5.402 34.5056 5.346 34.5936 5.306C34.6856 5.266 34.7836 5.246 34.8876 5.246C34.9916 5.246 35.0896 5.266 35.1816 5.306C35.2736 5.346 35.3536 5.402 35.4216 5.474C35.4936 5.542 35.5496 5.624 35.5896 5.72C35.6336 5.812 35.6556 5.91 35.6556 6.014ZM39.3439 7.82C39.6079 7.82 39.8539 7.85 40.0819 7.91C40.3139 7.966 40.5239 8.05 40.7119 8.162H42.3619V8.558C42.3619 8.69 42.2779 8.774 42.1099 8.81L41.4199 8.906C41.5559 9.166 41.6239 9.456 41.6239 9.776C41.6239 10.072 41.5659 10.342 41.4499 10.586C41.3379 10.826 41.1799 11.032 40.9759 11.204C40.7759 11.376 40.5359 11.508 40.2559 11.6C39.9799 11.692 39.6759 11.738 39.3439 11.738C39.0599 11.738 38.7919 11.704 38.5399 11.636C38.4119 11.716 38.3139 11.802 38.2459 11.894C38.1819 11.986 38.1499 12.076 38.1499 12.164C38.1499 12.308 38.2079 12.418 38.3239 12.494C38.4399 12.566 38.5939 12.618 38.7859 12.65C38.9779 12.682 39.1959 12.702 39.4399 12.71C39.6839 12.718 39.9319 12.732 40.1839 12.752C40.4399 12.768 40.6899 12.798 40.9339 12.842C41.1779 12.886 41.3959 12.958 41.5879 13.058C41.7799 13.158 41.9339 13.296 42.0499 13.472C42.1659 13.648 42.2239 13.876 42.2239 14.156C42.2239 14.416 42.1579 14.668 42.0259 14.912C41.8979 15.156 41.7119 15.372 41.4679 15.56C41.2239 15.752 40.9259 15.904 40.5739 16.016C40.2219 16.132 39.8239 16.19 39.3799 16.19C38.9359 16.19 38.5459 16.146 38.2099 16.058C37.8779 15.97 37.6019 15.852 37.3819 15.704C37.1619 15.556 36.9959 15.384 36.8839 15.188C36.7759 14.996 36.7219 14.794 36.7219 14.582C36.7219 14.282 36.8159 14.028 37.0039 13.82C37.1959 13.608 37.4579 13.44 37.7899 13.316C37.6179 13.236 37.4799 13.13 37.3759 12.998C37.2759 12.862 37.2259 12.682 37.2259 12.458C37.2259 12.37 37.2419 12.28 37.2739 12.188C37.3059 12.092 37.3539 11.998 37.4179 11.906C37.4859 11.814 37.5679 11.726 37.6639 11.642C37.7599 11.558 37.8719 11.484 37.9999 11.42C37.6999 11.252 37.4639 11.03 37.2919 10.754C37.1239 10.474 37.0399 10.148 37.0399 9.776C37.0399 9.48 37.0959 9.212 37.2079 8.972C37.3239 8.728 37.4839 8.522 37.6879 8.354C37.8919 8.182 38.1339 8.05 38.4139 7.958C38.6979 7.866 39.0079 7.82 39.3439 7.82ZM41.2399 14.33C41.2399 14.178 41.1979 14.056 41.1139 13.964C41.0299 13.872 40.9159 13.802 40.7719 13.754C40.6279 13.702 40.4619 13.664 40.2739 13.64C40.0859 13.616 39.8879 13.6 39.6799 13.592C39.4719 13.58 39.2599 13.568 39.0439 13.556C38.8279 13.544 38.6219 13.522 38.4259 13.49C38.1979 13.598 38.0119 13.73 37.8679 13.886C37.7279 14.042 37.6579 14.228 37.6579 14.444C37.6579 14.58 37.6919 14.706 37.7599 14.822C37.8319 14.942 37.9399 15.044 38.0839 15.128C38.2279 15.216 38.4079 15.284 38.6239 15.332C38.8439 15.384 39.1019 15.41 39.3979 15.41C39.6859 15.41 39.9439 15.384 40.1719 15.332C40.3999 15.28 40.5919 15.206 40.7479 15.11C40.9079 15.014 41.0299 14.9 41.1139 14.768C41.1979 14.636 41.2399 14.49 41.2399 14.33ZM39.3439 11.03C39.5599 11.03 39.7499 11 39.9139 10.94C40.0819 10.88 40.2219 10.796 40.3339 10.688C40.4459 10.58 40.5299 10.452 40.5859 10.304C40.6419 10.152 40.6699 9.986 40.6699 9.806C40.6699 9.434 40.5559 9.138 40.3279 8.918C40.1039 8.698 39.7759 8.588 39.3439 8.588C38.9159 8.588 38.5879 8.698 38.3599 8.918C38.1359 9.138 38.0239 9.434 38.0239 9.806C38.0239 9.986 38.0519 10.152 38.1079 10.304C38.1679 10.452 38.2539 10.58 38.3659 10.688C38.4779 10.796 38.6159 10.88 38.7799 10.94C38.9439 11 39.1319 11.03 39.3439 11.03ZM43.4268 14V5.162H44.4948V8.738C44.7548 8.462 45.0428 8.242 45.3588 8.078C45.6748 7.91 46.0388 7.826 46.4508 7.826C46.7828 7.826 47.0748 7.882 47.3268 7.994C47.5828 8.102 47.7948 8.258 47.9628 8.462C48.1348 8.662 48.2648 8.904 48.3528 9.188C48.4408 9.472 48.4848 9.786 48.4848 10.13V14H47.4168V10.13C47.4168 9.67 47.3108 9.314 47.0988 9.062C46.8908 8.806 46.5708 8.678 46.1388 8.678C45.8228 8.678 45.5268 8.754 45.2508 8.906C44.9788 9.058 44.7268 9.264 44.4948 9.524V14H43.4268ZM51.9368 14.096C51.4568 14.096 51.0868 13.962 50.8268 13.694C50.5708 13.426 50.4428 13.04 50.4428 12.536V8.816H49.7108C49.6468 8.816 49.5928 8.798 49.5488 8.762C49.5048 8.722 49.4828 8.662 49.4828 8.582V8.156L50.4788 8.03L50.7248 6.152C50.7328 6.092 50.7588 6.044 50.8027 6.008C50.8468 5.968 50.9028 5.948 50.9708 5.948H51.5108V8.042H53.2508V8.816H51.5108V12.464C51.5108 12.72 51.5728 12.91 51.6968 13.034C51.8208 13.158 51.9808 13.22 52.1768 13.22C52.2888 13.22 52.3848 13.206 52.4648 13.178C52.5488 13.146 52.6208 13.112 52.6808 13.076C52.7408 13.04 52.7908 13.008 52.8308 12.98C52.8748 12.948 52.9128 12.932 52.9448 12.932C53.0008 12.932 53.0508 12.966 53.0948 13.034L53.4068 13.544C53.2228 13.716 53.0008 13.852 52.7408 13.952C52.4808 14.048 52.2128 14.096 51.9368 14.096ZM58.0513 8.924C58.0033 9.012 57.9293 9.056 57.8293 9.056C57.7693 9.056 57.7013 9.034 57.6253 8.99C57.5493 8.946 57.4553 8.898 57.3433 8.846C57.2353 8.79 57.1053 8.74 56.9533 8.696C56.8013 8.648 56.6213 8.624 56.4133 8.624C56.2333 8.624 56.0713 8.648 55.9273 8.696C55.7833 8.74 55.6593 8.802 55.5553 8.882C55.4553 8.962 55.3773 9.056 55.3213 9.164C55.2693 9.268 55.2433 9.382 55.2433 9.506C55.2433 9.662 55.2873 9.792 55.3753 9.896C55.4673 10 55.5873 10.09 55.7353 10.166C55.8833 10.242 56.0513 10.31 56.2393 10.37C56.4273 10.426 56.6193 10.488 56.8153 10.556C57.0153 10.62 57.2093 10.692 57.3973 10.772C57.5853 10.852 57.7533 10.952 57.9013 11.072C58.0493 11.192 58.1673 11.34 58.2553 11.516C58.3473 11.688 58.3933 11.896 58.3933 12.14C58.3933 12.42 58.3433 12.68 58.2433 12.92C58.1433 13.156 57.9953 13.362 57.7993 13.538C57.6033 13.71 57.3633 13.846 57.0793 13.946C56.7953 14.046 56.4673 14.096 56.0953 14.096C55.6713 14.096 55.2873 14.028 54.9433 13.892C54.5993 13.752 54.3073 13.574 54.0673 13.358L54.3193 12.95C54.3513 12.898 54.3893 12.858 54.4333 12.83C54.4773 12.802 54.5353 12.788 54.6073 12.788C54.6793 12.788 54.7553 12.816 54.8353 12.872C54.9153 12.928 55.0113 12.99 55.1233 13.058C55.2393 13.126 55.3773 13.188 55.5373 13.244C55.7013 13.3 55.9053 13.328 56.1493 13.328C56.3573 13.328 56.5393 13.302 56.6953 13.25C56.8513 13.194 56.9813 13.12 57.0853 13.028C57.1893 12.936 57.2653 12.83 57.3133 12.71C57.3653 12.59 57.3913 12.462 57.3913 12.326C57.3913 12.158 57.3453 12.02 57.2533 11.912C57.1653 11.8 57.0473 11.706 56.8993 11.63C56.7513 11.55 56.5813 11.482 56.3893 11.426C56.2013 11.366 56.0073 11.304 55.8073 11.24C55.6113 11.176 55.4173 11.104 55.2253 11.024C55.0373 10.94 54.8693 10.836 54.7213 10.712C54.5733 10.588 54.4533 10.436 54.3613 10.256C54.2733 10.072 54.2293 9.85 54.2293 9.59C54.2293 9.358 54.2773 9.136 54.3733 8.924C54.4693 8.708 54.6093 8.52 54.7933 8.36C54.9773 8.196 55.2033 8.066 55.4713 7.97C55.7393 7.874 56.0453 7.826 56.3893 7.826C56.7893 7.826 57.1473 7.89 57.4633 8.018C57.7833 8.142 58.0593 8.314 58.2913 8.534L58.0513 8.924ZM62.0948 14V7.922H62.7068C62.8228 7.922 62.9028 7.944 62.9468 7.988C62.9908 8.032 63.0208 8.108 63.0368 8.216L63.1088 9.164C63.3168 8.74 63.5728 8.41 63.8768 8.174C64.1848 7.934 64.5448 7.814 64.9568 7.814C65.1248 7.814 65.2768 7.834 65.4128 7.874C65.5488 7.91 65.6748 7.962 65.7908 8.03L65.6528 8.828C65.6248 8.928 65.5628 8.978 65.4668 8.978C65.4108 8.978 65.3248 8.96 65.2088 8.924C65.0928 8.884 64.9308 8.864 64.7228 8.864C64.3508 8.864 64.0388 8.972 63.7868 9.188C63.5388 9.404 63.3308 9.718 63.1628 10.13V14H62.0948ZM69.3406 7.826C69.7046 7.826 70.0406 7.888 70.3486 8.012C70.6566 8.132 70.9226 8.308 71.1466 8.54C71.3706 8.768 71.5446 9.052 71.6686 9.392C71.7966 9.728 71.8606 10.112 71.8606 10.544C71.8606 10.712 71.8426 10.824 71.8066 10.88C71.7706 10.936 71.7026 10.964 71.6026 10.964H67.5586C67.5666 11.348 67.6186 11.682 67.7146 11.966C67.8106 12.25 67.9426 12.488 68.1106 12.68C68.2786 12.868 68.4786 13.01 68.7106 13.106C68.9426 13.198 69.2026 13.244 69.4906 13.244C69.7586 13.244 69.9886 13.214 70.1806 13.154C70.3766 13.09 70.5446 13.022 70.6846 12.95C70.8246 12.878 70.9406 12.812 71.0326 12.752C71.1286 12.688 71.2106 12.656 71.2786 12.656C71.3666 12.656 71.4346 12.69 71.4826 12.758L71.7826 13.148C71.6506 13.308 71.4926 13.448 71.3086 13.568C71.1246 13.684 70.9266 13.78 70.7146 13.856C70.5066 13.932 70.2906 13.988 70.0666 14.024C69.8426 14.064 69.6206 14.084 69.4006 14.084C68.9806 14.084 68.5926 14.014 68.2366 13.874C67.8846 13.73 67.5786 13.522 67.3186 13.25C67.0626 12.974 66.8626 12.634 66.7186 12.23C66.5746 11.826 66.5026 11.362 66.5026 10.838C66.5026 10.414 66.5666 10.018 66.6946 9.65C66.8266 9.282 67.0146 8.964 67.2586 8.696C67.5026 8.424 67.8006 8.212 68.1526 8.06C68.5046 7.904 68.9006 7.826 69.3406 7.826ZM69.3646 8.612C68.8486 8.612 68.4426 8.762 68.1466 9.062C67.8506 9.358 67.6666 9.77 67.5946 10.298H70.9006C70.9006 10.05 70.8666 9.824 70.7986 9.62C70.7306 9.412 70.6306 9.234 70.4986 9.086C70.3666 8.934 70.2046 8.818 70.0126 8.738C69.8246 8.654 69.6086 8.612 69.3646 8.612ZM76.7076 8.924C76.6596 9.012 76.5856 9.056 76.4856 9.056C76.4256 9.056 76.3576 9.034 76.2816 8.99C76.2056 8.946 76.1116 8.898 75.9996 8.846C75.8916 8.79 75.7616 8.74 75.6096 8.696C75.4576 8.648 75.2776 8.624 75.0696 8.624C74.8896 8.624 74.7276 8.648 74.5836 8.696C74.4396 8.74 74.3156 8.802 74.2116 8.882C74.1116 8.962 74.0336 9.056 73.9776 9.164C73.9256 9.268 73.8996 9.382 73.8996 9.506C73.8996 9.662 73.9436 9.792 74.0316 9.896C74.1236 10 74.2436 10.09 74.3916 10.166C74.5396 10.242 74.7076 10.31 74.8956 10.37C75.0836 10.426 75.2756 10.488 75.4716 10.556C75.6716 10.62 75.8656 10.692 76.0536 10.772C76.2416 10.852 76.4096 10.952 76.5576 11.072C76.7056 11.192 76.8236 11.34 76.9116 11.516C77.0036 11.688 77.0496 11.896 77.0496 12.14C77.0496 12.42 76.9996 12.68 76.8996 12.92C76.7996 13.156 76.6516 13.362 76.4556 13.538C76.2596 13.71 76.0196 13.846 75.7356 13.946C75.4516 14.046 75.1236 14.096 74.7516 14.096C74.3276 14.096 73.9436 14.028 73.5996 13.892C73.2556 13.752 72.9636 13.574 72.7236 13.358L72.9756 12.95C73.0076 12.898 73.0456 12.858 73.0896 12.83C73.1336 12.802 73.1916 12.788 73.2636 12.788C73.3356 12.788 73.4116 12.816 73.4916 12.872C73.5716 12.928 73.6676 12.99 73.7796 13.058C73.8956 13.126 74.0336 13.188 74.1936 13.244C74.3576 13.3 74.5616 13.328 74.8056 13.328C75.0136 13.328 75.1956 13.302 75.3516 13.25C75.5076 13.194 75.6376 13.12 75.7416 13.028C75.8456 12.936 75.9216 12.83 75.9696 12.71C76.0216 12.59 76.0476 12.462 76.0476 12.326C76.0476 12.158 76.0016 12.02 75.9096 11.912C75.8216 11.8 75.7036 11.706 75.5556 11.63C75.4076 11.55 75.2376 11.482 75.0456 11.426C74.8576 11.366 74.6636 11.304 74.4636 11.24C74.2676 11.176 74.0736 11.104 73.8816 11.024C73.6936 10.94 73.5256 10.836 73.3776 10.712C73.2296 10.588 73.1096 10.436 73.0176 10.256C72.9296 10.072 72.8856 9.85 72.8856 9.59C72.8856 9.358 72.9336 9.136 73.0296 8.924C73.1256 8.708 73.2656 8.52 73.4496 8.36C73.6336 8.196 73.8596 8.066 74.1276 7.97C74.3956 7.874 74.7016 7.826 75.0456 7.826C75.4456 7.826 75.8036 7.89 76.1196 8.018C76.4396 8.142 76.7156 8.314 76.9476 8.534L76.7076 8.924ZM80.8367 7.826C81.2007 7.826 81.5367 7.888 81.8447 8.012C82.1527 8.132 82.4187 8.308 82.6427 8.54C82.8667 8.768 83.0407 9.052 83.1647 9.392C83.2927 9.728 83.3567 10.112 83.3567 10.544C83.3567 10.712 83.3387 10.824 83.3027 10.88C83.2667 10.936 83.1987 10.964 83.0987 10.964H79.0547C79.0627 11.348 79.1147 11.682 79.2107 11.966C79.3067 12.25 79.4387 12.488 79.6067 12.68C79.7747 12.868 79.9747 13.01 80.2067 13.106C80.4387 13.198 80.6987 13.244 80.9867 13.244C81.2547 13.244 81.4847 13.214 81.6767 13.154C81.8727 13.09 82.0407 13.022 82.1807 12.95C82.3207 12.878 82.4367 12.812 82.5287 12.752C82.6247 12.688 82.7067 12.656 82.7747 12.656C82.8627 12.656 82.9307 12.69 82.9787 12.758L83.2787 13.148C83.1467 13.308 82.9887 13.448 82.8047 13.568C82.6207 13.684 82.4227 13.78 82.2107 13.856C82.0027 13.932 81.7867 13.988 81.5627 14.024C81.3387 14.064 81.1167 14.084 80.8967 14.084C80.4767 14.084 80.0887 14.014 79.7327 13.874C79.3807 13.73 79.0747 13.522 78.8147 13.25C78.5587 12.974 78.3587 12.634 78.2147 12.23C78.0707 11.826 77.9987 11.362 77.9987 10.838C77.9987 10.414 78.0627 10.018 78.1907 9.65C78.3227 9.282 78.5107 8.964 78.7547 8.696C78.9987 8.424 79.2967 8.212 79.6487 8.06C80.0007 7.904 80.3967 7.826 80.8367 7.826ZM80.8607 8.612C80.3447 8.612 79.9387 8.762 79.6427 9.062C79.3467 9.358 79.1627 9.77 79.0907 10.298H82.3967C82.3967 10.05 82.3627 9.824 82.2947 9.62C82.2267 9.412 82.1267 9.234 81.9947 9.086C81.8627 8.934 81.7007 8.818 81.5087 8.738C81.3207 8.654 81.1047 8.612 80.8607 8.612ZM84.7237 14V7.922H85.3357C85.4517 7.922 85.5317 7.944 85.5757 7.988C85.6197 8.032 85.6497 8.108 85.6657 8.216L85.7377 9.164C85.9457 8.74 86.2017 8.41 86.5057 8.174C86.8137 7.934 87.1737 7.814 87.5857 7.814C87.7537 7.814 87.9057 7.834 88.0417 7.874C88.1777 7.91 88.3037 7.962 88.4197 8.03L88.2817 8.828C88.2537 8.928 88.1917 8.978 88.0957 8.978C88.0397 8.978 87.9537 8.96 87.8377 8.924C87.7217 8.884 87.5597 8.864 87.3517 8.864C86.9797 8.864 86.6677 8.972 86.4157 9.188C86.1677 9.404 85.9597 9.718 85.7917 10.13V14H84.7237ZM88.7955 7.922H89.6715C89.7555 7.922 89.8255 7.944 89.8815 7.988C89.9375 8.032 89.9775 8.084 90.0015 8.144L91.5435 12.056C91.5995 12.2 91.6435 12.344 91.6755 12.488C91.7075 12.632 91.7375 12.774 91.7655 12.914C91.7975 12.774 91.8315 12.632 91.8675 12.488C91.9035 12.344 91.9495 12.2 92.0055 12.056L93.5655 8.144C93.5895 8.08 93.6275 8.028 93.6795 7.988C93.7355 7.944 93.8035 7.922 93.8835 7.922H94.7175L92.2395 14H91.2735L88.7955 7.922ZM97.9578 7.826C98.3218 7.826 98.6578 7.888 98.9658 8.012C99.2738 8.132 99.5398 8.308 99.7638 8.54C99.9878 8.768 100.162 9.052 100.286 9.392C100.414 9.728 100.478 10.112 100.478 10.544C100.478 10.712 100.46 10.824 100.424 10.88C100.388 10.936 100.32 10.964 100.22 10.964H96.1758C96.1838 11.348 96.2358 11.682 96.3318 11.966C96.4278 12.25 96.5598 12.488 96.7278 12.68C96.8958 12.868 97.0958 13.01 97.3278 13.106C97.5598 13.198 97.8198 13.244 98.1078 13.244C98.3758 13.244 98.6058 13.214 98.7978 13.154C98.9938 13.09 99.1618 13.022 99.3018 12.95C99.4418 12.878 99.5578 12.812 99.6498 12.752C99.7458 12.688 99.8278 12.656 99.8958 12.656C99.9838 12.656 100.052 12.69 100.1 12.758L100.4 13.148C100.268 13.308 100.11 13.448 99.9258 13.568C99.7418 13.684 99.5438 13.78 99.3318 13.856C99.1238 13.932 98.9078 13.988 98.6838 14.024C98.4598 14.064 98.2378 14.084 98.0178 14.084C97.5978 14.084 97.2098 14.014 96.8538 13.874C96.5018 13.73 96.1958 13.522 95.9358 13.25C95.6798 12.974 95.4798 12.634 95.3358 12.23C95.1918 11.826 95.1198 11.362 95.1198 10.838C95.1198 10.414 95.1838 10.018 95.3118 9.65C95.4438 9.282 95.6318 8.964 95.8758 8.696C96.1198 8.424 96.4178 8.212 96.7698 8.06C97.1218 7.904 97.5178 7.826 97.9578 7.826ZM97.9818 8.612C97.4658 8.612 97.0598 8.762 96.7638 9.062C96.4678 9.358 96.2838 9.77 96.2118 10.298H99.5178C99.5178 10.05 99.4838 9.824 99.4158 9.62C99.3478 9.412 99.2478 9.234 99.1158 9.086C98.9838 8.934 98.8218 8.818 98.6298 8.738C98.4418 8.654 98.2258 8.612 97.9818 8.612ZM106.123 14C105.971 14 105.875 13.926 105.835 13.778L105.739 13.04C105.479 13.356 105.181 13.61 104.845 13.802C104.513 13.99 104.131 14.084 103.699 14.084C103.351 14.084 103.035 14.018 102.751 13.886C102.467 13.75 102.225 13.552 102.025 13.292C101.825 13.032 101.671 12.708 101.563 12.32C101.455 11.932 101.401 11.486 101.401 10.982C101.401 10.534 101.461 10.118 101.581 9.734C101.701 9.346 101.873 9.01 102.097 8.726C102.325 8.442 102.601 8.22 102.925 8.06C103.249 7.896 103.617 7.814 104.029 7.814C104.401 7.814 104.719 7.878 104.983 8.006C105.247 8.13 105.483 8.306 105.691 8.534V5.162H106.759V14H106.123ZM104.053 13.22C104.401 13.22 104.705 13.14 104.965 12.98C105.229 12.82 105.471 12.594 105.691 12.302V9.362C105.495 9.098 105.279 8.914 105.043 8.81C104.811 8.702 104.553 8.648 104.269 8.648C103.701 8.648 103.265 8.85 102.961 9.254C102.657 9.658 102.505 10.234 102.505 10.982C102.505 11.378 102.539 11.718 102.607 12.002C102.675 12.282 102.775 12.514 102.907 12.698C103.039 12.878 103.201 13.01 103.393 13.094C103.585 13.178 103.805 13.22 104.053 13.22ZM108.2 13.34C108.2 13.236 108.218 13.138 108.254 13.046C108.294 12.954 108.346 12.874 108.41 12.806C108.478 12.738 108.558 12.684 108.65 12.644C108.742 12.604 108.84 12.584 108.944 12.584C109.048 12.584 109.146 12.604 109.238 12.644C109.33 12.684 109.41 12.738 109.478 12.806C109.546 12.874 109.598 12.954 109.634 13.046C109.674 13.138 109.694 13.236 109.694 13.34C109.694 13.448 109.674 13.548 109.634 13.64C109.598 13.728 109.546 13.806 109.478 13.874C109.41 13.942 109.33 13.994 109.238 14.03C109.146 14.07 109.048 14.09 108.944 14.09C108.84 14.09 108.742 14.07 108.65 14.03C108.558 13.994 108.478 13.942 108.41 13.874C108.346 13.806 108.294 13.728 108.254 13.64C108.218 13.548 108.2 13.448 108.2 13.34Z" fill="white"/>
<path d="M118.274 10.892C118.33 10.988 118.378 11.09 118.418 11.198C118.462 11.302 118.504 11.408 118.544 11.516C118.584 11.404 118.626 11.298 118.67 11.198C118.714 11.094 118.764 10.99 118.82 10.886L121.73 5.6C121.782 5.508 121.836 5.452 121.892 5.432C121.948 5.412 122.028 5.402 122.132 5.402H122.99V14H121.97V7.682C121.97 7.598 121.972 7.508 121.976 7.412C121.98 7.316 121.986 7.218 121.994 7.118L119.048 12.494C118.948 12.674 118.808 12.764 118.628 12.764H118.46C118.28 12.764 118.14 12.674 118.04 12.494L115.028 7.1C115.04 7.204 115.048 7.306 115.052 7.406C115.06 7.506 115.064 7.598 115.064 7.682V14H114.044V5.402H114.902C115.006 5.402 115.086 5.412 115.142 5.432C115.198 5.452 115.252 5.508 115.304 5.6L118.274 10.892ZM129.379 14H128.905C128.801 14 128.717 13.984 128.653 13.952C128.589 13.92 128.547 13.852 128.527 13.748L128.407 13.184C128.247 13.328 128.091 13.458 127.939 13.574C127.787 13.686 127.627 13.782 127.459 13.862C127.291 13.938 127.111 13.996 126.919 14.036C126.731 14.076 126.521 14.096 126.289 14.096C126.053 14.096 125.831 14.064 125.623 14C125.419 13.932 125.241 13.832 125.089 13.7C124.937 13.568 124.815 13.402 124.723 13.202C124.635 12.998 124.591 12.758 124.591 12.482C124.591 12.242 124.657 12.012 124.789 11.792C124.921 11.568 125.133 11.37 125.425 11.198C125.721 11.026 126.107 10.886 126.583 10.778C127.059 10.666 127.641 10.602 128.329 10.586V10.112C128.329 9.64 128.227 9.284 128.023 9.044C127.823 8.8 127.525 8.678 127.129 8.678C126.869 8.678 126.649 8.712 126.469 8.78C126.293 8.844 126.139 8.918 126.007 9.002C125.879 9.082 125.767 9.156 125.671 9.224C125.579 9.288 125.487 9.32 125.395 9.32C125.323 9.32 125.259 9.302 125.203 9.266C125.151 9.226 125.109 9.178 125.077 9.122L124.885 8.78C125.221 8.456 125.583 8.214 125.971 8.054C126.359 7.894 126.789 7.814 127.261 7.814C127.601 7.814 127.903 7.87 128.167 7.982C128.431 8.094 128.653 8.25 128.833 8.45C129.013 8.65 129.149 8.892 129.241 9.176C129.333 9.46 129.379 9.772 129.379 10.112V14ZM126.607 13.346C126.795 13.346 126.967 13.328 127.123 13.292C127.279 13.252 127.425 13.198 127.561 13.13C127.701 13.058 127.833 12.972 127.957 12.872C128.085 12.772 128.209 12.658 128.329 12.53V11.264C127.837 11.28 127.419 11.32 127.075 11.384C126.731 11.444 126.451 11.524 126.235 11.624C126.019 11.724 125.861 11.842 125.761 11.978C125.665 12.114 125.617 12.266 125.617 12.434C125.617 12.594 125.643 12.732 125.695 12.848C125.747 12.964 125.817 13.06 125.905 13.136C125.993 13.208 126.097 13.262 126.217 13.298C126.337 13.33 126.467 13.346 126.607 13.346ZM135.275 14C135.123 14 135.027 13.926 134.987 13.778L134.891 13.04C134.631 13.356 134.333 13.61 133.997 13.802C133.665 13.99 133.283 14.084 132.851 14.084C132.503 14.084 132.187 14.018 131.903 13.886C131.619 13.75 131.377 13.552 131.177 13.292C130.977 13.032 130.823 12.708 130.715 12.32C130.607 11.932 130.553 11.486 130.553 10.982C130.553 10.534 130.613 10.118 130.733 9.734C130.853 9.346 131.025 9.01 131.249 8.726C131.477 8.442 131.753 8.22 132.077 8.06C132.401 7.896 132.769 7.814 133.181 7.814C133.553 7.814 133.871 7.878 134.135 8.006C134.399 8.13 134.635 8.306 134.843 8.534V5.162H135.911V14H135.275ZM133.205 13.22C133.553 13.22 133.857 13.14 134.117 12.98C134.381 12.82 134.623 12.594 134.843 12.302V9.362C134.647 9.098 134.431 8.914 134.195 8.81C133.963 8.702 133.705 8.648 133.421 8.648C132.853 8.648 132.417 8.85 132.113 9.254C131.809 9.658 131.657 10.234 131.657 10.982C131.657 11.378 131.691 11.718 131.759 12.002C131.827 12.282 131.927 12.514 132.059 12.698C132.191 12.878 132.353 13.01 132.545 13.094C132.737 13.178 132.957 13.22 133.205 13.22ZM140.106 7.826C140.47 7.826 140.806 7.888 141.114 8.012C141.422 8.132 141.688 8.308 141.912 8.54C142.136 8.768 142.31 9.052 142.434 9.392C142.562 9.728 142.626 10.112 142.626 10.544C142.626 10.712 142.608 10.824 142.572 10.88C142.536 10.936 142.468 10.964 142.368 10.964H138.324C138.332 11.348 138.384 11.682 138.48 11.966C138.576 12.25 138.708 12.488 138.876 12.68C139.044 12.868 139.244 13.01 139.476 13.106C139.708 13.198 139.968 13.244 140.256 13.244C140.524 13.244 140.754 13.214 140.946 13.154C141.142 13.09 141.31 13.022 141.45 12.95C141.59 12.878 141.706 12.812 141.798 12.752C141.894 12.688 141.976 12.656 142.044 12.656C142.132 12.656 142.2 12.69 142.248 12.758L142.548 13.148C142.416 13.308 142.258 13.448 142.074 13.568C141.89 13.684 141.692 13.78 141.48 13.856C141.272 13.932 141.056 13.988 140.832 14.024C140.608 14.064 140.386 14.084 140.166 14.084C139.746 14.084 139.358 14.014 139.002 13.874C138.65 13.73 138.344 13.522 138.084 13.25C137.828 12.974 137.628 12.634 137.484 12.23C137.34 11.826 137.268 11.362 137.268 10.838C137.268 10.414 137.332 10.018 137.46 9.65C137.592 9.282 137.78 8.964 138.024 8.696C138.268 8.424 138.566 8.212 138.918 8.06C139.27 7.904 139.666 7.826 140.106 7.826ZM140.13 8.612C139.614 8.612 139.208 8.762 138.912 9.062C138.616 9.358 138.432 9.77 138.36 10.298H141.666C141.666 10.05 141.632 9.824 141.564 9.62C141.496 9.412 141.396 9.234 141.264 9.086C141.132 8.934 140.97 8.818 140.778 8.738C140.59 8.654 140.374 8.612 140.13 8.612ZM145.522 7.922H146.362C146.45 7.922 146.522 7.944 146.578 7.988C146.634 8.032 146.672 8.084 146.692 8.144L147.856 12.056C147.888 12.2 147.918 12.34 147.946 12.476C147.974 12.608 147.998 12.742 148.018 12.878C148.05 12.742 148.086 12.608 148.126 12.476C148.166 12.34 148.208 12.2 148.252 12.056L149.536 8.12C149.556 8.06 149.59 8.01 149.638 7.97C149.69 7.93 149.754 7.91 149.83 7.91H150.292C150.372 7.91 150.438 7.93 150.49 7.97C150.542 8.01 150.578 8.06 150.598 8.12L151.852 12.056C151.896 12.196 151.934 12.334 151.966 12.47C152.002 12.606 152.036 12.74 152.068 12.872C152.088 12.74 152.114 12.602 152.146 12.458C152.178 12.314 152.212 12.18 152.248 12.056L153.436 8.144C153.456 8.08 153.494 8.028 153.55 7.988C153.606 7.944 153.672 7.922 153.748 7.922H154.552L152.584 14H151.738C151.634 14 151.562 13.932 151.522 13.796L150.178 9.674C150.146 9.582 150.12 9.49 150.1 9.398C150.08 9.302 150.06 9.208 150.04 9.116C150.02 9.208 150 9.302 149.98 9.398C149.96 9.494 149.934 9.588 149.902 9.68L148.54 13.796C148.496 13.932 148.414 14 148.294 14H147.49L145.522 7.922ZM156.689 7.922V14H155.621V7.922H156.689ZM156.929 6.014C156.929 6.118 156.907 6.216 156.863 6.308C156.823 6.396 156.767 6.476 156.695 6.548C156.627 6.616 156.547 6.67 156.455 6.71C156.363 6.75 156.265 6.77 156.161 6.77C156.057 6.77 155.959 6.75 155.867 6.71C155.779 6.67 155.699 6.616 155.627 6.548C155.559 6.476 155.505 6.396 155.465 6.308C155.425 6.216 155.405 6.118 155.405 6.014C155.405 5.91 155.425 5.812 155.465 5.72C155.505 5.624 155.559 5.542 155.627 5.474C155.699 5.402 155.779 5.346 155.867 5.306C155.959 5.266 156.057 5.246 156.161 5.246C156.265 5.246 156.363 5.266 156.455 5.306C156.547 5.346 156.627 5.402 156.695 5.474C156.767 5.542 156.823 5.624 156.863 5.72C156.907 5.812 156.929 5.91 156.929 6.014ZM160.413 14.096C159.933 14.096 159.563 13.962 159.303 13.694C159.047 13.426 158.919 13.04 158.919 12.536V8.816H158.187C158.123 8.816 158.069 8.798 158.025 8.762C157.981 8.722 157.959 8.662 157.959 8.582V8.156L158.955 8.03L159.201 6.152C159.209 6.092 159.235 6.044 159.279 6.008C159.323 5.968 159.379 5.948 159.447 5.948H159.987V8.042H161.727V8.816H159.987V12.464C159.987 12.72 160.049 12.91 160.173 13.034C160.297 13.158 160.457 13.22 160.653 13.22C160.765 13.22 160.861 13.206 160.941 13.178C161.025 13.146 161.097 13.112 161.157 13.076C161.217 13.04 161.267 13.008 161.307 12.98C161.351 12.948 161.389 12.932 161.421 12.932C161.477 12.932 161.527 12.966 161.571 13.034L161.883 13.544C161.699 13.716 161.477 13.852 161.217 13.952C160.957 14.048 160.689 14.096 160.413 14.096ZM163.048 14V5.162H164.116V8.738C164.376 8.462 164.664 8.242 164.98 8.078C165.296 7.91 165.66 7.826 166.072 7.826C166.404 7.826 166.696 7.882 166.948 7.994C167.204 8.102 167.416 8.258 167.584 8.462C167.756 8.662 167.886 8.904 167.974 9.188C168.062 9.472 168.106 9.786 168.106 10.13V14H167.038V10.13C167.038 9.67 166.932 9.314 166.72 9.062C166.512 8.806 166.192 8.678 165.76 8.678C165.444 8.678 165.148 8.754 164.872 8.906C164.6 9.058 164.348 9.264 164.116 9.524V14H163.048Z" fill="white"/>
<path fill-rule="evenodd" clip-rule="evenodd" d="M181 14.2715C177.934 12.5252 176.224 10.7896 175.397 9.28361C174.55 7.74228 174.624 6.4441 175.094 5.52273C176.059 3.62892 178.804 3.02333 180.477 5.13865L181 5.80001L181.523 5.13868C183.195 3.02327 185.941 3.62896 186.906 5.52273C187.376 6.44409 187.449 7.74226 186.603 9.28359C185.776 10.7895 184.066 12.5252 181 14.2715ZM181 3.73726C178.647 1.50152 175.176 2.42555 173.906 4.91723C173.209 6.2847 173.199 8.05212 174.228 9.92536C175.247 11.782 177.28 13.7417 180.677 15.6194L181 15.7976L181.322 15.6194C184.719 13.7417 186.752 11.782 187.772 9.92537C188.8 8.05214 188.791 6.28472 188.094 4.91723C186.824 2.4255 183.353 1.50155 181 3.73726Z" fill="#FF3F3A"/>
<path d="M193.912 14V5.162H194.986V8.798C195.238 8.506 195.526 8.272 195.85 8.096C196.178 7.916 196.552 7.826 196.972 7.826C197.324 7.826 197.642 7.892 197.926 8.024C198.21 8.156 198.452 8.354 198.652 8.618C198.852 8.878 199.006 9.202 199.114 9.59C199.222 9.974 199.276 10.418 199.276 10.922C199.276 11.37 199.216 11.788 199.096 12.176C198.976 12.56 198.802 12.894 198.574 13.178C198.35 13.458 198.074 13.68 197.746 13.844C197.422 14.004 197.056 14.084 196.648 14.084C196.256 14.084 195.922 14.008 195.646 13.856C195.374 13.704 195.136 13.492 194.932 13.22L194.878 13.772C194.846 13.924 194.754 14 194.602 14H193.912ZM196.624 8.678C196.276 8.678 195.97 8.758 195.706 8.918C195.446 9.078 195.206 9.304 194.986 9.596V12.536C195.178 12.8 195.39 12.986 195.622 13.094C195.858 13.202 196.12 13.256 196.408 13.256C196.976 13.256 197.412 13.054 197.716 12.65C198.02 12.246 198.172 11.67 198.172 10.922C198.172 10.526 198.136 10.186 198.064 9.902C197.996 9.618 197.896 9.386 197.764 9.206C197.632 9.022 197.47 8.888 197.278 8.804C197.086 8.72 196.868 8.678 196.624 8.678ZM202.209 15.794C202.173 15.874 202.127 15.938 202.071 15.986C202.019 16.034 201.937 16.058 201.825 16.058H201.033L202.143 13.646L199.635 7.922H200.559C200.651 7.922 200.723 7.946 200.775 7.994C200.827 8.038 200.865 8.088 200.889 8.144L202.515 11.972C202.551 12.06 202.581 12.148 202.605 12.236C202.633 12.324 202.657 12.414 202.677 12.506C202.705 12.414 202.733 12.324 202.761 12.236C202.789 12.148 202.821 12.058 202.857 11.966L204.435 8.144C204.459 8.08 204.499 8.028 204.555 7.988C204.615 7.944 204.679 7.922 204.747 7.922H205.599L202.209 15.794ZM215.116 12.224C215.18 12.224 215.238 12.25 215.29 12.302L215.746 12.8C215.394 13.208 214.966 13.526 214.462 13.754C213.962 13.982 213.358 14.096 212.65 14.096C212.03 14.096 211.468 13.99 210.964 13.778C210.46 13.562 210.03 13.262 209.674 12.878C209.318 12.49 209.042 12.026 208.846 11.486C208.65 10.946 208.552 10.352 208.552 9.704C208.552 9.056 208.656 8.462 208.864 7.922C209.076 7.382 209.372 6.918 209.752 6.53C210.132 6.142 210.586 5.842 211.114 5.63C211.646 5.414 212.232 5.306 212.872 5.306C213.504 5.306 214.048 5.404 214.504 5.6C214.964 5.796 215.372 6.062 215.728 6.398L215.35 6.932C215.322 6.972 215.29 7.006 215.254 7.034C215.218 7.058 215.166 7.07 215.098 7.07C215.046 7.07 214.99 7.052 214.93 7.016C214.874 6.976 214.806 6.928 214.726 6.872C214.646 6.816 214.552 6.756 214.444 6.692C214.336 6.628 214.208 6.568 214.06 6.512C213.912 6.456 213.74 6.41 213.544 6.374C213.348 6.334 213.122 6.314 212.866 6.314C212.406 6.314 211.984 6.394 211.6 6.554C211.22 6.71 210.892 6.934 210.616 7.226C210.34 7.518 210.124 7.874 209.968 8.294C209.816 8.714 209.74 9.184 209.74 9.704C209.74 10.24 209.816 10.718 209.968 11.138C210.124 11.558 210.334 11.914 210.598 12.206C210.866 12.494 211.182 12.714 211.546 12.866C211.91 13.018 212.302 13.094 212.722 13.094C212.978 13.094 213.208 13.08 213.412 13.052C213.616 13.02 213.804 12.972 213.976 12.908C214.152 12.844 214.314 12.764 214.462 12.668C214.614 12.568 214.766 12.45 214.918 12.314C214.986 12.254 215.052 12.224 215.116 12.224ZM217.103 14V7.922H217.715C217.831 7.922 217.911 7.944 217.955 7.988C217.999 8.032 218.029 8.108 218.045 8.216L218.117 9.164C218.325 8.74 218.581 8.41 218.885 8.174C219.193 7.934 219.553 7.814 219.965 7.814C220.133 7.814 220.285 7.834 220.421 7.874C220.557 7.91 220.683 7.962 220.799 8.03L220.661 8.828C220.633 8.928 220.571 8.978 220.475 8.978C220.419 8.978 220.333 8.96 220.217 8.924C220.101 8.884 219.939 8.864 219.731 8.864C219.359 8.864 219.047 8.972 218.795 9.188C218.547 9.404 218.339 9.718 218.171 10.13V14H217.103ZM224.348 7.826C224.712 7.826 225.048 7.888 225.356 8.012C225.664 8.132 225.93 8.308 226.154 8.54C226.378 8.768 226.552 9.052 226.676 9.392C226.804 9.728 226.868 10.112 226.868 10.544C226.868 10.712 226.85 10.824 226.814 10.88C226.778 10.936 226.71 10.964 226.61 10.964H222.566C222.574 11.348 222.626 11.682 222.722 11.966C222.818 12.25 222.95 12.488 223.118 12.68C223.286 12.868 223.486 13.01 223.718 13.106C223.95 13.198 224.21 13.244 224.498 13.244C224.766 13.244 224.996 13.214 225.188 13.154C225.384 13.09 225.552 13.022 225.692 12.95C225.832 12.878 225.948 12.812 226.04 12.752C226.136 12.688 226.218 12.656 226.286 12.656C226.374 12.656 226.442 12.69 226.49 12.758L226.79 13.148C226.658 13.308 226.5 13.448 226.316 13.568C226.132 13.684 225.934 13.78 225.722 13.856C225.514 13.932 225.298 13.988 225.074 14.024C224.85 14.064 224.628 14.084 224.408 14.084C223.988 14.084 223.6 14.014 223.244 13.874C222.892 13.73 222.586 13.522 222.326 13.25C222.07 12.974 221.87 12.634 221.726 12.23C221.582 11.826 221.51 11.362 221.51 10.838C221.51 10.414 221.574 10.018 221.702 9.65C221.834 9.282 222.022 8.964 222.266 8.696C222.51 8.424 222.808 8.212 223.16 8.06C223.512 7.904 223.908 7.826 224.348 7.826ZM224.372 8.612C223.856 8.612 223.45 8.762 223.154 9.062C222.858 9.358 222.674 9.77 222.602 10.298H225.908C225.908 10.05 225.874 9.824 225.806 9.62C225.738 9.412 225.638 9.234 225.506 9.086C225.374 8.934 225.212 8.818 225.02 8.738C224.832 8.654 224.616 8.612 224.372 8.612ZM232.699 14H232.225C232.121 14 232.037 13.984 231.973 13.952C231.909 13.92 231.867 13.852 231.847 13.748L231.727 13.184C231.567 13.328 231.411 13.458 231.259 13.574C231.107 13.686 230.947 13.782 230.779 13.862C230.611 13.938 230.431 13.996 230.239 14.036C230.051 14.076 229.841 14.096 229.609 14.096C229.373 14.096 229.151 14.064 228.943 14C228.739 13.932 228.561 13.832 228.409 13.7C228.257 13.568 228.135 13.402 228.043 13.202C227.955 12.998 227.911 12.758 227.911 12.482C227.911 12.242 227.977 12.012 228.109 11.792C228.241 11.568 228.453 11.37 228.745 11.198C229.041 11.026 229.427 10.886 229.903 10.778C230.379 10.666 230.961 10.602 231.649 10.586V10.112C231.649 9.64 231.547 9.284 231.343 9.044C231.143 8.8 230.845 8.678 230.449 8.678C230.189 8.678 229.969 8.712 229.789 8.78C229.613 8.844 229.459 8.918 229.327 9.002C229.199 9.082 229.087 9.156 228.991 9.224C228.899 9.288 228.807 9.32 228.715 9.32C228.643 9.32 228.579 9.302 228.523 9.266C228.471 9.226 228.429 9.178 228.397 9.122L228.205 8.78C228.541 8.456 228.903 8.214 229.291 8.054C229.679 7.894 230.109 7.814 230.581 7.814C230.921 7.814 231.223 7.87 231.487 7.982C231.751 8.094 231.973 8.25 232.153 8.45C232.333 8.65 232.469 8.892 232.561 9.176C232.653 9.46 232.699 9.772 232.699 10.112V14ZM229.927 13.346C230.115 13.346 230.287 13.328 230.443 13.292C230.599 13.252 230.745 13.198 230.881 13.13C231.021 13.058 231.153 12.972 231.277 12.872C231.405 12.772 231.529 12.658 231.649 12.53V11.264C231.157 11.28 230.739 11.32 230.395 11.384C230.051 11.444 229.771 11.524 229.555 11.624C229.339 11.724 229.181 11.842 229.081 11.978C228.985 12.114 228.937 12.266 228.937 12.434C228.937 12.594 228.963 12.732 229.015 12.848C229.067 12.964 229.137 13.06 229.225 13.136C229.313 13.208 229.417 13.262 229.537 13.298C229.657 13.33 229.787 13.346 229.927 13.346ZM236.159 14.096C235.679 14.096 235.309 13.962 235.049 13.694C234.793 13.426 234.665 13.04 234.665 12.536V8.816H233.933C233.869 8.816 233.815 8.798 233.771 8.762C233.727 8.722 233.705 8.662 233.705 8.582V8.156L234.701 8.03L234.947 6.152C234.955 6.092 234.981 6.044 235.025 6.008C235.069 5.968 235.125 5.948 235.193 5.948H235.733V8.042H237.473V8.816H235.733V12.464C235.733 12.72 235.795 12.91 235.919 13.034C236.043 13.158 236.203 13.22 236.399 13.22C236.511 13.22 236.607 13.206 236.687 13.178C236.771 13.146 236.843 13.112 236.903 13.076C236.963 13.04 237.013 13.008 237.053 12.98C237.097 12.948 237.135 12.932 237.167 12.932C237.223 12.932 237.273 12.966 237.317 13.034L237.629 13.544C237.445 13.716 237.223 13.852 236.963 13.952C236.703 14.048 236.435 14.096 236.159 14.096ZM241.2 7.826C241.564 7.826 241.9 7.888 242.208 8.012C242.516 8.132 242.782 8.308 243.006 8.54C243.23 8.768 243.404 9.052 243.528 9.392C243.656 9.728 243.72 10.112 243.72 10.544C243.72 10.712 243.702 10.824 243.666 10.88C243.63 10.936 243.562 10.964 243.462 10.964H239.418C239.426 11.348 239.478 11.682 239.574 11.966C239.67 12.25 239.802 12.488 239.97 12.68C240.138 12.868 240.338 13.01 240.57 13.106C240.802 13.198 241.062 13.244 241.35 13.244C241.618 13.244 241.848 13.214 242.04 13.154C242.236 13.09 242.404 13.022 242.544 12.95C242.684 12.878 242.8 12.812 242.892 12.752C242.988 12.688 243.07 12.656 243.138 12.656C243.226 12.656 243.294 12.69 243.342 12.758L243.642 13.148C243.51 13.308 243.352 13.448 243.168 13.568C242.984 13.684 242.786 13.78 242.574 13.856C242.366 13.932 242.15 13.988 241.926 14.024C241.702 14.064 241.48 14.084 241.26 14.084C240.84 14.084 240.452 14.014 240.096 13.874C239.744 13.73 239.438 13.522 239.178 13.25C238.922 12.974 238.722 12.634 238.578 12.23C238.434 11.826 238.362 11.362 238.362 10.838C238.362 10.414 238.426 10.018 238.554 9.65C238.686 9.282 238.874 8.964 239.118 8.696C239.362 8.424 239.66 8.212 240.012 8.06C240.364 7.904 240.76 7.826 241.2 7.826ZM241.224 8.612C240.708 8.612 240.302 8.762 240.006 9.062C239.71 9.358 239.526 9.77 239.454 10.298H242.76C242.76 10.05 242.726 9.824 242.658 9.62C242.59 9.412 242.49 9.234 242.358 9.086C242.226 8.934 242.064 8.818 241.872 8.738C241.684 8.654 241.468 8.612 241.224 8.612ZM246.146 10.886L244.1 7.922H245.126C245.214 7.922 245.278 7.936 245.318 7.964C245.358 7.992 245.394 8.032 245.426 8.084L246.914 10.364C246.95 10.252 247.002 10.14 247.07 10.028L248.378 8.108C248.418 8.052 248.458 8.008 248.498 7.976C248.538 7.94 248.588 7.922 248.648 7.922H249.632L247.586 10.826L249.716 14H248.69C248.602 14 248.532 13.978 248.48 13.934C248.432 13.886 248.392 13.834 248.36 13.778L246.83 11.396C246.802 11.512 246.76 11.616 246.704 11.708L245.288 13.778C245.248 13.834 245.204 13.886 245.156 13.934C245.112 13.978 245.05 14 244.97 14H244.016L246.146 10.886ZM257.663 6.746C257.627 6.806 257.589 6.852 257.549 6.884C257.509 6.912 257.457 6.926 257.393 6.926C257.325 6.926 257.245 6.892 257.153 6.824C257.065 6.756 256.951 6.682 256.811 6.602C256.675 6.518 256.509 6.442 256.313 6.374C256.121 6.306 255.887 6.272 255.611 6.272C255.351 6.272 255.121 6.308 254.921 6.38C254.721 6.448 254.553 6.542 254.417 6.662C254.285 6.782 254.185 6.924 254.117 7.088C254.049 7.248 254.015 7.422 254.015 7.61C254.015 7.85 254.073 8.05 254.189 8.21C254.309 8.366 254.465 8.5 254.657 8.612C254.853 8.724 255.073 8.822 255.317 8.906C255.565 8.986 255.817 9.07 256.073 9.158C256.333 9.246 256.585 9.346 256.829 9.458C257.077 9.566 257.297 9.704 257.489 9.872C257.685 10.04 257.841 10.246 257.957 10.49C258.077 10.734 258.137 11.034 258.137 11.39C258.137 11.766 258.073 12.12 257.945 12.452C257.817 12.78 257.629 13.066 257.381 13.31C257.137 13.554 256.835 13.746 256.475 13.886C256.119 14.026 255.713 14.096 255.257 14.096C254.701 14.096 254.193 13.996 253.733 13.796C253.277 13.592 252.887 13.318 252.563 12.974L252.899 12.422C252.931 12.378 252.969 12.342 253.013 12.314C253.061 12.282 253.113 12.266 253.169 12.266C253.253 12.266 253.349 12.312 253.457 12.404C253.565 12.492 253.699 12.59 253.859 12.698C254.023 12.806 254.219 12.906 254.447 12.998C254.679 13.086 254.961 13.13 255.293 13.13C255.569 13.13 255.815 13.092 256.031 13.016C256.247 12.94 256.429 12.834 256.577 12.698C256.729 12.558 256.845 12.392 256.925 12.2C257.005 12.008 257.045 11.794 257.045 11.558C257.045 11.298 256.985 11.086 256.865 10.922C256.749 10.754 256.595 10.614 256.403 10.502C256.211 10.39 255.991 10.296 255.743 10.22C255.499 10.14 255.247 10.06 254.987 9.98C254.731 9.896 254.479 9.8 254.231 9.692C253.987 9.584 253.769 9.444 253.577 9.272C253.385 9.1 253.229 8.886 253.109 8.63C252.993 8.37 252.935 8.05 252.935 7.67C252.935 7.366 252.993 7.072 253.109 6.788C253.229 6.504 253.401 6.252 253.625 6.032C253.849 5.812 254.125 5.636 254.453 5.504C254.785 5.372 255.165 5.306 255.593 5.306C256.073 5.306 256.511 5.382 256.907 5.534C257.303 5.686 257.649 5.906 257.945 6.194L257.663 6.746ZM261.296 14.096C260.816 14.096 260.446 13.962 260.186 13.694C259.93 13.426 259.802 13.04 259.802 12.536V8.816H259.07C259.006 8.816 258.952 8.798 258.908 8.762C258.864 8.722 258.842 8.662 258.842 8.582V8.156L259.838 8.03L260.084 6.152C260.092 6.092 260.118 6.044 260.162 6.008C260.206 5.968 260.262 5.948 260.33 5.948H260.87V8.042H262.61V8.816H260.87V12.464C260.87 12.72 260.932 12.91 261.056 13.034C261.18 13.158 261.34 13.22 261.536 13.22C261.648 13.22 261.744 13.206 261.824 13.178C261.908 13.146 261.98 13.112 262.04 13.076C262.1 13.04 262.15 13.008 262.19 12.98C262.234 12.948 262.272 12.932 262.304 12.932C262.36 12.932 262.41 12.966 262.454 13.034L262.766 13.544C262.582 13.716 262.36 13.852 262.1 13.952C261.84 14.048 261.572 14.096 261.296 14.096ZM264.855 7.922V11.798C264.855 12.258 264.961 12.614 265.173 12.866C265.385 13.118 265.705 13.244 266.133 13.244C266.445 13.244 266.739 13.17 267.015 13.022C267.291 12.874 267.545 12.668 267.777 12.404V7.922H268.845V14H268.209C268.057 14 267.961 13.926 267.921 13.778L267.837 13.124C267.573 13.416 267.277 13.652 266.949 13.832C266.621 14.008 266.245 14.096 265.821 14.096C265.489 14.096 265.195 14.042 264.939 13.934C264.687 13.822 264.475 13.666 264.303 13.466C264.131 13.266 264.001 13.024 263.913 12.74C263.829 12.456 263.787 12.142 263.787 11.798V7.922H264.855ZM274.877 14C274.725 14 274.629 13.926 274.589 13.778L274.493 13.04C274.233 13.356 273.935 13.61 273.599 13.802C273.267 13.99 272.885 14.084 272.453 14.084C272.105 14.084 271.789 14.018 271.505 13.886C271.221 13.75 270.979 13.552 270.779 13.292C270.579 13.032 270.425 12.708 270.317 12.32C270.209 11.932 270.155 11.486 270.155 10.982C270.155 10.534 270.215 10.118 270.335 9.734C270.455 9.346 270.627 9.01 270.851 8.726C271.079 8.442 271.355 8.22 271.679 8.06C272.003 7.896 272.371 7.814 272.783 7.814C273.155 7.814 273.473 7.878 273.737 8.006C274.001 8.13 274.237 8.306 274.445 8.534V5.162H275.513V14H274.877ZM272.807 13.22C273.155 13.22 273.459 13.14 273.719 12.98C273.983 12.82 274.225 12.594 274.445 12.302V9.362C274.249 9.098 274.033 8.914 273.797 8.81C273.565 8.702 273.307 8.648 273.023 8.648C272.455 8.648 272.019 8.85 271.715 9.254C271.411 9.658 271.259 10.234 271.259 10.982C271.259 11.378 271.293 11.718 271.361 12.002C271.429 12.282 271.529 12.514 271.661 12.698C271.793 12.878 271.955 13.01 272.147 13.094C272.339 13.178 272.559 13.22 272.807 13.22ZM278.49 7.922V14H277.422V7.922H278.49ZM278.73 6.014C278.73 6.118 278.708 6.216 278.664 6.308C278.624 6.396 278.568 6.476 278.496 6.548C278.428 6.616 278.348 6.67 278.256 6.71C278.164 6.75 278.066 6.77 277.962 6.77C277.858 6.77 277.76 6.75 277.668 6.71C277.58 6.67 277.5 6.616 277.428 6.548C277.36 6.476 277.306 6.396 277.266 6.308C277.226 6.216 277.206 6.118 277.206 6.014C277.206 5.91 277.226 5.812 277.266 5.72C277.306 5.624 277.36 5.542 277.428 5.474C277.5 5.402 277.58 5.346 277.668 5.306C277.76 5.266 277.858 5.246 277.962 5.246C278.066 5.246 278.164 5.266 278.256 5.306C278.348 5.346 278.428 5.402 278.496 5.474C278.568 5.542 278.624 5.624 278.664 5.72C278.708 5.812 278.73 5.91 278.73 6.014ZM282.832 7.826C283.276 7.826 283.676 7.9 284.032 8.048C284.392 8.196 284.696 8.406 284.944 8.678C285.196 8.95 285.388 9.28 285.52 9.668C285.656 10.052 285.724 10.482 285.724 10.958C285.724 11.438 285.656 11.87 285.52 12.254C285.388 12.638 285.196 12.966 284.944 13.238C284.696 13.51 284.392 13.72 284.032 13.868C283.676 14.012 283.276 14.084 282.832 14.084C282.388 14.084 281.986 14.012 281.626 13.868C281.27 13.72 280.966 13.51 280.714 13.238C280.462 12.966 280.268 12.638 280.132 12.254C279.996 11.87 279.928 11.438 279.928 10.958C279.928 10.482 279.996 10.052 280.132 9.668C280.268 9.28 280.462 8.95 280.714 8.678C280.966 8.406 281.27 8.196 281.626 8.048C281.986 7.9 282.388 7.826 282.832 7.826ZM282.832 13.25C283.432 13.25 283.88 13.05 284.176 12.65C284.472 12.246 284.62 11.684 284.62 10.964C284.62 10.24 284.472 9.676 284.176 9.272C283.88 8.868 283.432 8.666 282.832 8.666C282.528 8.666 282.264 8.718 282.04 8.822C281.816 8.926 281.628 9.076 281.476 9.272C281.328 9.468 281.216 9.71 281.14 9.998C281.068 10.282 281.032 10.604 281.032 10.964C281.032 11.324 281.068 11.646 281.14 11.93C281.216 12.214 281.328 12.454 281.476 12.65C281.628 12.842 281.816 12.99 282.04 13.094C282.264 13.198 282.528 13.25 282.832 13.25Z" fill="white"/>
</svg>
